<svg xmlns="http://www.w3.org/2000/svg" version="1.1" xmlns:xlink="http://www.w3.org/1999/xlink" xmlns:svgjs="http://svgjs.dev/svgjs" width="1500" height="1500" viewBox="0 0 1500 1500"><rect width="1500" height="1500" fill="#ffffff"></rect><g transform="matrix(0.6666666666666666,0,0,0.6666666666666666,249.39393939393938,677.7361173131733)"><svg viewBox="0 0 396 57" data-background-color="#ffffff" preserveAspectRatio="xMidYMid meet" height="215" width="1500" xmlns="http://www.w3.org/2000/svg" xmlns:xlink="http://www.w3.org/1999/xlink"><g id="tight-bounds" transform="matrix(1,0,0,1,0.2400000000000091,0.23749753359857095)"><svg viewBox="0 0 395.52 56.52500493280283" height="56.52500493280283" width="395.52"><g><svg viewBox="0 0 536.1390788923368 76.62131897010948" height="56.52500493280283" width="395.52"><g><rect width="6.875412555149902" height="76.62131897010948" x="115.74520415093066" y="0" fill="#000000" opacity="1" stroke-width="0" stroke="transparent" fill-opacity="1" class="rect-qz-0" data-fill-palette-color="primary" rx="1%" id="qz-0" data-palette-color="#000000"></rect></g><g transform="matrix(1,0,0,1,140.61907889233686,0.1906002959455435)"><svg viewBox="0 0 395.52 76.2401183782184" height="76.2401183782184" width="395.52"><g id="textblocktransform"><svg viewBox="0 0 395.52 76.2401183782184" height="76.2401183782184" width="395.52" id="textblock"><g><svg viewBox="0 0 395.52 76.2401183782184" height="76.2401183782184" width="395.52"><g transform="matrix(1,0,0,1,0,0)"><svg width="395.52" viewBox="1.66 -37.7 247.46 47.71" height="76.2401183782184" data-palette-color="#000000"><path d="M16.89 0L16.89 0 1.66 0 1.66-6.64 16.89-6.64Q17.58-6.64 18.07-7.13 18.55-7.62 18.55-8.3L18.55-8.3Q18.55-9.01 18.07-9.23 17.58-9.45 16.89-9.45L16.89-9.45 9.96-9.45Q8.23-9.45 6.71-10.11 5.2-10.77 4.08-11.9 2.95-13.04 2.31-14.55 1.66-16.06 1.66-17.8L1.66-17.8Q1.66-19.53 2.31-21.04 2.95-22.56 4.08-23.68 5.2-24.8 6.71-25.45 8.23-26.1 9.96-26.1L9.96-26.1 23.46-26.1 23.46-19.46 9.96-19.46Q9.28-19.46 8.79-18.97 8.3-18.48 8.3-17.8L8.3-17.8Q8.3-17.09 8.79-16.59 9.28-16.09 9.96-16.09L9.96-16.09 16.89-16.09Q18.6-16.09 20.12-15.52 21.63-14.94 22.75-13.92 23.88-12.89 24.54-11.45 25.2-10.01 25.2-8.3L25.2-8.3Q25.2-6.57 24.54-5.07 23.88-3.56 22.75-2.43 21.63-1.29 20.12-0.65 18.6 0 16.89 0ZM35.45-1.76L35.45 9.96 28.73 9.96 28.73-26.15 30.34-26.15 33.01-23Q33.91-23.85 34.98-24.61 36.06-25.37 37.22-25.92 38.38-26.46 39.62-26.78 40.87-27.1 42.14-27.1L42.14-27.1Q44.89-27.1 47.32-26.11 49.75-25.12 51.57-23.32 53.39-21.51 54.44-18.96 55.49-16.41 55.49-13.31L55.49-13.31Q55.49-10.08 54.44-7.51 53.39-4.93 51.57-3.14 49.75-1.34 47.32-0.39 44.89 0.56 42.14 0.56L42.14 0.56Q41.26 0.56 40.39 0.37 39.52 0.17 38.68-0.16 37.84-0.49 37.02-0.9 36.2-1.32 35.45-1.76L35.45-1.76ZM48.8-13.31L48.8-13.31Q48.8-14.97 48.28-16.28 47.75-17.6 46.85-18.52 45.94-19.43 44.72-19.92 43.5-20.41 42.14-20.41L42.14-20.41Q40.77-20.41 39.56-19.92 38.35-19.43 37.45-18.52 36.55-17.6 36.02-16.28 35.5-14.97 35.5-13.31L35.5-13.31Q35.5-11.72 36.02-10.4 36.55-9.08 37.45-8.15 38.35-7.23 39.56-6.71 40.77-6.2 42.14-6.2L42.14-6.2Q43.5-6.2 44.72-6.71 45.94-7.23 46.85-8.15 47.75-9.08 48.28-10.4 48.8-11.72 48.8-13.31ZM65.89-36.55L65.89 0 59.17 0 59.17-36.55 65.89-36.55ZM78.83-33.25L78.83-33.25Q78.83-32.32 78.47-31.52 78.12-30.71 77.51-30.11 76.9-29.52 76.08-29.16 75.26-28.81 74.33-28.81L74.33-28.81Q73.41-28.81 72.59-29.16 71.77-29.52 71.17-30.11 70.57-30.71 70.22-31.52 69.87-32.32 69.87-33.25L69.87-33.25Q69.87-34.16 70.22-34.97 70.57-35.79 71.17-36.39 71.77-36.99 72.59-37.34 73.41-37.7 74.33-37.7L74.33-37.7Q75.26-37.7 76.08-37.34 76.9-36.99 77.51-36.39 78.12-35.79 78.47-34.97 78.83-34.16 78.83-33.25ZM77.68-26.15L77.68 0 70.96 0 70.96-26.15 77.68-26.15ZM100.92 0L95.86 0Q93.45 0 91.32-0.92 89.2-1.83 87.6-3.43 86-5.03 85.09-7.15 84.17-9.28 84.17-11.69L84.17-11.69 84.17-19.46 80.92-19.46 80.92-26.1 84.17-26.1 84.17-36.55 90.81-36.55 90.81-26.1 100.92-26.1 100.92-19.46 90.81-19.46 90.81-11.69Q90.81-10.64 91.2-9.73 91.59-8.81 92.28-8.13 92.96-7.45 93.89-7.04 94.81-6.64 95.86-6.64L95.86-6.64 100.92-6.64 100.92 0ZM137.9-16.6L137.9 0 131.26 0 131.26-16.6Q131.26-17.29 131.01-17.9 130.75-18.51 130.29-18.97 129.82-19.43 129.21-19.69 128.6-19.95 127.92-19.95L127.92-19.95Q127.23-19.95 126.64-19.69 126.04-19.43 125.59-18.97 125.13-18.51 124.88-17.9 124.62-17.29 124.62-16.6L124.62-16.6 124.62 0 117.96 0 117.96-16.6Q117.96-17.29 117.7-17.9 117.44-18.51 116.98-18.97 116.52-19.43 115.91-19.69 115.3-19.95 114.61-19.95L114.61-19.95Q113.93-19.95 113.33-19.69 112.73-19.43 112.28-18.97 111.83-18.51 111.57-17.9 111.32-17.29 111.32-16.6L111.32-16.6 111.32 0 104.65 0 104.65-26.15 106.26-26.15 108.07-24.15Q109.46-25.32 111.13-25.96 112.8-26.61 114.61-26.61L114.61-26.61Q116.44-26.61 118.19-25.93 119.93-25.24 121.25-23.56L121.25-23.56Q121.86-24.39 122.64-24.98 123.43-25.56 124.29-25.93 125.16-26.29 126.09-26.45 127.01-26.61 127.92-26.61L127.92-26.61Q129.99-26.61 131.81-25.83 133.63-25.05 134.99-23.69 136.34-22.34 137.12-20.51 137.9-18.68 137.9-16.6L137.9-16.6ZM168.03-13.31L168.03-13.31Q168.03-10.38 166.98-7.85 165.93-5.32 164.12-3.48 162.31-1.64 159.88-0.57 157.46 0.49 154.67 0.49L154.67 0.49Q151.91 0.49 149.48-0.57 147.06-1.64 145.24-3.48 143.42-5.32 142.37-7.85 141.32-10.38 141.32-13.31L141.32-13.31Q141.32-16.28 142.37-18.82 143.42-21.36 145.24-23.21 147.06-25.05 149.48-26.1 151.91-27.15 154.67-27.15L154.67-27.15Q157.46-27.15 159.88-26.16 162.31-25.17 164.12-23.35 165.93-21.53 166.98-18.98 168.03-16.43 168.03-13.31ZM161.31-13.31L161.31-13.31Q161.31-14.92 160.79-16.22 160.26-17.53 159.36-18.47 158.46-19.41 157.25-19.91 156.04-20.41 154.67-20.41L154.67-20.41Q153.31-20.41 152.1-19.91 150.89-19.41 150-18.47 149.11-17.53 148.59-16.22 148.08-14.92 148.08-13.31L148.08-13.31Q148.08-11.79 148.59-10.5 149.11-9.2 150-8.25 150.89-7.3 152.1-6.75 153.31-6.2 154.67-6.2L154.67-6.2Q156.04-6.2 157.25-6.71 158.46-7.23 159.36-8.15 160.26-9.08 160.79-10.4 161.31-11.72 161.31-13.31ZM178.38-14.94L178.38 0 171.71 0 171.71-26.15 173.32-26.15 175.52-23.61Q177.13-25.07 179.17-25.87 181.21-26.66 183.43-26.66L183.43-26.66Q185.82-26.66 187.95-25.74 190.07-24.83 191.66-23.23 193.24-21.63 194.16-19.49 195.08-17.36 195.08-14.94L195.08-14.94 195.08 0 188.41 0 188.41-14.94Q188.41-15.97 188.02-16.88 187.63-17.8 186.95-18.48 186.26-19.17 185.36-19.56 184.46-19.95 183.43-19.95L183.43-19.95Q182.38-19.95 181.45-19.56 180.52-19.17 179.84-18.48 179.16-17.8 178.77-16.88 178.38-15.97 178.38-14.94L178.38-14.94ZM222.71-21.46L210.21-6.4Q210.6-6.27 210.99-6.24 211.38-6.2 211.77-6.2L211.77-6.2Q212.75-6.2 213.65-6.47 214.56-6.74 215.35-7.24 216.14-7.74 216.76-8.46 217.39-9.18 217.78-10.06L217.78-10.06 222.66-5.15Q221.73-3.83 220.52-2.78 219.32-1.73 217.91-1 216.51-0.27 214.96 0.11 213.41 0.49 211.77 0.49L211.77 0.49Q209.01 0.49 206.58-0.54 204.15-1.56 202.34-3.39 200.52-5.22 199.47-7.75 198.42-10.28 198.42-13.31L198.42-13.31Q198.42-16.41 199.47-18.97 200.52-21.53 202.34-23.34 204.15-25.15 206.58-26.15 209.01-27.15 211.77-27.15L211.77-27.15Q213.41-27.15 214.97-26.76 216.53-26.37 217.94-25.63 219.34-24.9 220.56-23.84 221.78-22.78 222.71-21.46L222.71-21.46ZM205.86-9.84L213.63-20.14Q213.16-20.31 212.71-20.36 212.26-20.41 211.77-20.41L211.77-20.41Q210.4-20.41 209.2-19.91 207.99-19.41 207.1-18.48 206.21-17.55 205.69-16.25 205.18-14.94 205.18-13.31L205.18-13.31Q205.18-12.94 205.22-12.48 205.25-12.01 205.34-11.54 205.42-11.06 205.55-10.62 205.67-10.18 205.86-9.84L205.86-9.84ZM235.77 10.01L232.35 9.96 232.35 3.25 236.06 3.3Q237.04 3.3 237.94 2.98 238.84 2.66 239.61 2.1 240.38 1.54 240.97 0.77 241.55 0 241.92-0.9L241.92-0.9Q240.82-0.44 239.69 0.02 238.55 0.49 237.4 0.49L237.4 0.49Q234.99 0.49 232.86-0.37 230.74-1.22 229.14-2.8 227.54-4.37 226.63-6.63 225.71-8.89 225.71-11.69L225.71-11.69 225.71-26.15 232.35-26.15 232.35-11.69Q232.35-10.3 232.75-9.27 233.16-8.23 233.84-7.53 234.52-6.84 235.44-6.49 236.35-6.15 237.4-6.15L237.4-6.15Q238.43-6.15 239.35-6.63 240.26-7.1 240.94-7.89 241.63-8.67 242.02-9.66 242.41-10.64 242.41-11.69L242.41-11.69 242.41-26.15 249.12-26.15 249.12-3.3Q249.1-0.54 248.05 1.88 247 4.3 245.18 6.1 243.36 7.91 240.94 8.96 238.53 10.01 235.77 10.01L235.77 10.01Z" opacity="1" transform="matrix(1,0,0,1,0,0)" fill="#000000" class="wordmark-text-0" data-fill-palette-color="primary" id="text-0"></path></svg></g></svg></g></svg></g></svg></g><g transform="matrix(1,0,0,1,0,0.1906002959455435)"><svg viewBox="0 0 97.74674196467437 76.2401183782184" height="76.2401183782184" width="97.74674196467437"><g><svg xmlns="http://www.w3.org/2000/svg" xmlns:xlink="http://www.w3.org/1999/xlink" version="1.0" x="0" y="0" viewBox="4.065 5.811 15.870999999999999 12.379000000000001" enable-background="new 0 0 24 24" xml:space="preserve" height="76.2401183782184" width="97.74674196467437" class="icon-icon-0" data-fill-palette-color="accent" id="icon-0"><path d="M19.936 8.538L17.55 6.19l-0.379-0.379L16.793 6.19l-2.387 2.307 0.757 0.76 1.516-1.479v0.986c0 1.553-1.213 2.764-2.765 2.801h-0.039H7.852c-0.227-0.797-0.985-1.363-1.856-1.363-1.061 0-1.931 0.871-1.931 1.93 0 1.061 0.87 1.932 1.931 1.932 0.871 0 1.63-0.604 1.856-1.363h6.023 0.039c1.552 0.037 2.765 1.248 2.765 2.801v0.682l-1.516-1.477-0.757 0.795 2.387 2.309 0.378 0.379 0.379-0.379 2.386-2.383-0.759-0.758-1.438 1.439v-0.607c0-1.477-0.832-2.725-2.008-3.369 1.176-0.682 2.008-1.891 2.008-3.367v-0.91l1.438 1.439L19.936 8.538 19.936 8.538zM6.866 12.132c0 0.494-0.379 0.873-0.871 0.873-0.455 0-0.871-0.379-0.871-0.873 0-0.455 0.416-0.871 0.871-0.871C6.487 11.261 6.866 11.677 6.866 12.132L6.866 12.132z" fill="#000000" data-fill-palette-color="accent"></path></svg></g></svg></g></svg></g><defs></defs></svg><rect width="395.52" height="56.52500493280283" fill="none" stroke="none" visibility="hidden"></rect></g></svg></g></svg>